<?xml version="1.0" encoding="iso-8859-1"?>
<!-- Generator: Adobe Illustrator 19.0.0, SVG Export Plug-In . SVG Version: 6.00 Build 0)  -->
<svg version="1.1" id="Capa_1" xmlns="http://www.w3.org/2000/svg" xmlns:xlink="http://www.w3.org/1999/xlink" x="0px" y="0px"
	 viewBox="0 0 512.105 512.105" style="enable-background:new 0 0 512.105 512.105;" xml:space="preserve">
<path style="fill:#67C5B8;" d="M267.671,245.934l-14.933-8.533c0,0-8.533,2.133-10.667,16c-3.2,13.867-10.667,32-13.867,40.533
	c-3.2,8.533-6.4,33.067-9.6,41.6c-3.2,8.533-17.067,36.267-17.067,36.267l40.533,18.133c0,0,11.733-28.8,14.933-33.067
	c4.267-5.333,12.8-32,12.8-32L267.671,245.934z"/>
<path style="fill:#FFD15C;" d="M244.205,239.534c0,0,6.4,1.067,4.267,7.467c0,2.133-1.067,4.267-2.133,5.333
	c-1.067,2.133-3.2,4.267-3.2,7.467s-7.467,18.133-9.6,22.4c-2.133,4.267-6.4,16-6.4,16s-9.6,1.067-11.733,1.067
	c-2.133,1.067-7.467,3.2-10.667,4.267c-3.2,1.067-3.2,2.133-3.2,2.133l-4.267-28.8c0,0,18.133-3.2,21.333-6.4s5.333-5.333,6.4-7.467
	c1.067-1.067,5.333-4.267,6.4-5.333c2.133-1.067,6.4-6.4,6.4-6.4s2.133-4.267,3.2-5.333L244.205,239.534z"/>
<path style="fill:#F3F3F3;" d="M195.138,275.8c0,0,8.533-3.2,11.733,1.067c3.2,4.267,7.467,18.133,3.2,26.667
	c-4.267,8.533-33.067-3.2-33.067-3.2L195.138,275.8z"/>
<path style="fill:#344A5E;" d="M196.205,274.734c0,0,20.267,22.4,6.4,43.733h-28.8l-11.733-35.2L196.205,274.734z"/>
<path style="fill:#FFD15C;" d="M49.005,200.067l1.067-3.2v-67.2l70.4-12.8c0,0,7.467,22.4,7.467,25.6c0,0-2.133,6.4,0,12.8
	c2.133,6.4,5.333,17.067,2.133,24.533c-2.133,6.4-2.133,16-2.133,19.2c0,4.267-4.267,13.867-11.733,13.867s-16,18.133-16,18.133
	L49.005,200.067z"/>
<path style="fill:#E8EAE8;" d="M44.738,208.6c0,0,1.067-6.4,2.133-8.533c1.067-2.133,1.067-2.133,4.267-2.133
	c3.2,0,44.8-2.133,59.733,18.133c0,0,3.2,16,7.467,22.4L44.738,208.6z"/>
<path style="fill:#344A5E;" d="M156.738,282.2l6.4-23.467c0,0-16-20.267-34.133-22.4c-18.133-2.133-34.133-16-45.867-18.133
	s-48,3.2-48,3.2s-18.133,10.667-24.533,23.467c-6.4,12.8-20.267,60.8,0,104.533s21.333,76.8,21.333,76.8h139.733
	c0,0-4.267-50.133-13.867-76.8c-9.6-26.667-2.133-62.933-2.133-62.933"/>
<path style="fill:#48B9A5;" d="M379.671,206.467c0,0,16,5.333,20.267,7.467c4.267,2.133,38.4,8.533,38.4,8.533
	s-11.733,52.267-7.467,85.333c0,0-8.533,54.4-8.533,70.4s3.2,48,3.2,48H277.271c0,0,3.2-66.133-7.467-101.333
	c0,0-19.2-51.2-17.067-86.4c0,0,13.867-5.333,22.4-7.467c8.533-3.2,29.867-14.933,29.867-14.933l4.267,51.2l39.467,98.133
	l29.867-101.333C378.605,261.934,374.338,217.134,379.671,206.467z"/>
<path style="fill:#E8EAE8;" d="M420.205,423c0,0-33.067-6.4-18.133-49.067c0,0,9.6-5.333,16,3.2
	C425.538,386.734,425.538,420.867,420.205,423"/>
<path style="fill:#FFD15C;" d="M300.738,101.934l-13.867,12.8c0,0-5.333,13.867-5.333,22.4c0,0-1.067,6.4,0,8.533
	s2.133,6.4,2.133,10.667c0,3.2,0,12.8,7.467,25.6c7.467,12.8,1.067,21.333,18.133,21.333V240.6l53.333,5.333l8.533-42.667
	c0,0-9.6-7.467-9.6-13.867c0-6.4-1.067-7.467-1.067-7.467s5.333-40.533,0-53.333C355.138,116.867,339.138,99.8,300.738,101.934z"/>
<path style="fill:#E8EAE8;" d="M305.005,228.867l30.933,1.067h2.133l35.2-12.8l6.4,41.6l-29.867,104.533c0,0-3.2-2.133-7.467-10.667
	C339.138,344.067,305.005,228.867,305.005,228.867z"/>
<path style="fill:#F05640;" d="M353.005,355.8c-7.467-32-6.4-86.4-6.4-91.733c0-6.4-3.2-20.267-3.2-20.267l-2.133-3.2h-5.333
	l-1.067,4.267c0,0-4.267,11.733-5.333,20.267c0,4.267-1.067,29.867-2.133,55.467c1.067,1.067,18.133,37.333,20.267,43.733
	C348.738,361.134,350.871,357.934,353.005,355.8z"/>
<path style="fill:#F26F5A;" d="M328.471,231L328.471,231c3.2-1.067,10.667-2.133,19.2-1.067l2.133,1.067c0,0-4.267,6.4-6.4,11.733
	c0,0-5.333-2.133-8.533,1.067c0,0-4.267-8.533-8.533-10.667L328.471,231"/>
<path style="fill:#425A6B;" d="M284.738,121.134c0,0,12.8-13.867,28.8-9.6c16,4.267,14.933,7.467,11.733,10.667
	c-3.2,4.267,11.733,8.533,12.8,11.733c1.067,3.2,2.133,23.467,2.133,23.467h5.333c0,0-1.067-14.933,12.8-14.933
	c0,0-7.467,30.933,3.2,48c0,0,12.8-24.533,12.8-52.267s-19.2-45.867-41.6-53.333C310.338,78.467,274.071,90.2,284.738,121.134z"/>
<path style="fill:#FFD15C;" d="M358.338,155.267c-2.133,7.467-7.467,11.733-10.667,9.6c-3.2-1.067-5.333-8.533-2.133-14.933
	c2.133-7.467,7.467-11.733,10.667-9.6C359.405,141.4,360.471,147.8,358.338,155.267z"/>
<path style="fill:#F5B54C;" d="M309.271,203.267v25.6c30.933-30.933,37.333-57.6,38.4-58.667
	C332.738,201.134,309.271,203.267,309.271,203.267z"/>
<path style="fill:#FFFFFF;" d="M361.538,193.667c0,0,4.267,8.533-2.133,14.933c-6.4,5.333-21.333,21.333-21.333,21.333l19.2,10.667
	l14.933-21.333C372.205,219.267,372.205,195.8,361.538,193.667z"/>
<path style="fill:#67C5B8;" d="M361.538,193.667c0,0,6.4,5.333,6.4,13.867s-3.2,42.667-3.2,51.2c0,8.533-3.2,57.6-8.533,71.467
	c-5.333,13.867-10.667,41.6-10.667,41.6s24.533-40.533,32-68.267c7.467-26.667,16-70.4,16-70.4l-12.8-5.333l8.533-6.4l-7.467-13.867
	c0,0-4.267-3.2-6.4-5.333C372.205,201.134,367.938,192.6,361.538,193.667z"/>
<path style="fill:#FFFFFF;" d="M309.271,208.6c0,0,3.2,12.8,26.667,21.333c0,0-5.333,5.333-9.6,9.6c-3.2,4.267-6.4,5.333-6.4,5.333
	L305.005,221.4C305.005,221.4,306.071,213.934,309.271,208.6z"/>
<path style="fill:#67C5B8;" d="M309.271,208.6c0,0,0,11.733,2.133,19.2c2.133,7.467,16,66.133,18.133,72.533
	s19.2,62.933,19.2,62.933s-28.8-40.533-39.467-72.533c-10.667-32-16-43.733-16-43.733l9.6-10.667l-8.533-4.267
	C294.338,231,307.138,209.667,309.271,208.6z"/>
<path style="fill:#425A6B;" d="M402.071,375L402.071,375L402.071,375z"/>
<path style="fill:#FFD15C;" d="M344.471,371.8c0,0,1.067,3.2,5.333,3.2c0,0-5.333-2.133-2.133-6.4l6.4,2.133
	c0,0,7.467-1.067,9.6-1.067l9.6-4.267c2.133-1.067,4.267-1.067,6.4,0c5.333,2.133,16,7.467,17.067,7.467
	c1.067,1.067,4.267,1.067,5.333,1.067c0,0,3.2-2.133,6.4-1.067c3.2,1.067,8.533,7.467,8.533,7.467l2.133,19.2c0,0-3.2,3.2-7.467,3.2
	c-4.267,0-7.467,1.067-9.6,2.133c-2.133,0-6.4,4.267-11.733,5.333c-4.267,2.133-11.733,2.133-11.733,2.133
	c-1.067,0-9.6,3.2-18.133,3.2c-2.133,0-5.333-1.067-6.4-2.133c-2.133-1.067-3.2-3.2-3.2-4.267c0-1.067,0-3.2,0-3.2
	s-2.133-1.067-3.2-3.2c0-3.2-1.067-6.4-1.067-6.4s-5.333-1.067-5.333-5.333c0-4.267,1.067-6.4,1.067-6.4
	S334.871,378.2,344.471,371.8z"/>
<path style="fill:#67C5B8;" d="M505.538,369.667c-16,14.933-43.733,29.867-51.2,36.267c-5.333,4.267-32,21.333-32,21.333
	s0-1.067,0-2.133c-2.133-9.6-6.4-53.333-18.133-50.133c14.933-7.467,28.8-12.8,30.933-12.8c3.2-1.067,10.667-2.133,14.933-4.267
	c3.2-2.133,9.6-7.467,9.6-7.467s-4.267-7.467-4.267-10.667c0-3.2-8.533-9.6-11.733-14.933c-3.2-5.333-10.667-17.067-10.667-17.067
	c-5.333-33.067,7.467-85.333,7.467-85.333s9.6,11.733,10.667,18.133c1.067,6.4,13.867,24.533,17.067,32
	c3.2,6.4,32,53.333,34.133,57.6C503.405,333.4,521.538,355.8,505.538,369.667z"/>
<g>
	<path style="fill:#F5B54C;" d="M343.405,383.534C343.405,383.534,343.405,384.6,343.405,383.534
		c1.067,1.067,1.067,1.067,2.133,2.133c0,0,1.067,0,1.067,1.067h1.067c1.067,0,2.133,0,3.2,0s2.133,0,3.2,0h1.067h1.067h1.067h1.067
		h1.067l0,0c0,0,0,0-1.067,0h-1.067h-1.067h-1.067h-1.067c-1.067,0-2.133,0-3.2,0s-2.133,0-3.2,0s-1.067,0-1.067,0
		s-1.067,0-1.067-1.067C344.471,385.667,344.471,384.6,343.405,383.534C343.405,384.6,343.405,383.534,343.405,383.534
		L343.405,383.534z"/>
	<path style="fill:#F5B54C;" d="M346.605,397.4l2.133,1.067l0,0c2.133,0,4.267,0,6.4,0h1.067h1.067c1.067,0,2.133,0,3.2,0l0,0
		c-1.067,0-2.133,0-3.2,0h-1.067h-1.067c-2.133,0-4.267,0-6.4,0l0,0l0,0L346.605,397.4L346.605,397.4z"/>
	<path style="fill:#F5B54C;" d="M349.805,407c0,0,1.067,0,2.133,1.067h1.067l0,0l0,0l0,0l0,0c0,0,0,0,1.067,0s2.133,0,3.2,0
		s2.133,0,3.2,0s2.133,0,3.2,0s2.133,0,2.133,0l0,0c0,0-1.067,0-2.133,0c-1.067,0-2.133,0-3.2,0s-2.133,0-3.2,0s-2.133,0-3.2,0
		c0,0,0,0-1.067,0l0,0l0,0l0,0l0,0h-1.067C350.871,408.067,349.805,407,349.805,407L349.805,407z"/>
	<path style="fill:#F5B54C;" d="M349.805,375c0,0,1.067,0,4.267,0c1.067,0,1.067,0,2.133,0c1.067,0,1.067,0,2.133,0
		c1.067,0,3.2,0,4.267,0c1.067,0,3.2,0,4.267,0c1.067,0,1.067,0,2.133,0c1.067,0,1.067,0,2.133,0c1.067,0,1.067,0,1.067,0h1.067
		c1.067,0,1.067,0,1.067,0l0,0c0,0,0,0-1.067,0h-1.067c0,0-1.067,0-1.067,1.067c-1.067,0-1.067,0-2.133,0c-1.067,0-1.067,0-2.133,0
		c-1.067,0-3.2,0-4.267,0c-1.067,0-3.2,0-4.267,0c-1.067,0-1.067,0-2.133,0c-1.067,0-1.067,0-2.133,0
		C351.938,376.067,349.805,375,349.805,375L349.805,375z"/>
</g>
<g>
	<path style="fill:#425A6B;" d="M170.605,271.534c-11.733-29.867-55.467-29.867-67.2,0c-2.133,6.4-4.267,12.8-4.267,21.333v1.067
		c-1.067,27.733,12.8,53.333,36.267,68.267c21.333,13.867,48,32,52.267,35.2c7.467,6.4,23.467,23.467,40.533,28.8
		c16,5.333,48,3.2,53.333-9.6c5.333-12.8-1.067-37.333-19.2-42.667C244.205,368.6,215.405,339.8,205.805,327
		C195.138,315.267,170.605,271.534,170.605,271.534L170.605,271.534z"/>
	<path style="fill:#425A6B;" d="M33.005,225.667c0,0,4.267-8.533,5.333-12.8c1.067-4.267,2.133-6.4,5.333-7.467
		c3.2,0,24.533-2.133,41.6,5.333c17.067,6.4,29.867,21.333,32,23.467c0,0-21.333-7.467-34.133-9.6
		C69.271,222.467,43.671,222.467,33.005,225.667z"/>
	<path style="fill:#425A6B;" d="M115.138,153.134l4.267-2.133c0,0-1.067-17.067,1.067-22.4c3.2-5.333,4.267-1.067,4.267-1.067
		s0,1.067-1.067,5.333c0,0,5.333-6.4,5.333-11.733c0-4.267-6.4-18.133-20.267-25.6c-13.867-6.4-48-16-69.333,6.4
		c-21.333,21.333-16,48-14.933,56.533c2.133,8.533,26.667,38.4,26.667,38.4s13.867-6.4,26.667-6.4c11.733-1.067,16-25.6,17.067-35.2
		C95.938,147.8,106.605,133.934,115.138,153.134z"/>
</g>
<path style="fill:#FFD15C;" d="M111.938,152.067c1.067,7.467-2.133,13.867-5.333,13.867c-4.267,0-7.467-6.4-8.533-13.867
	c0-7.467,2.133-12.8,6.4-12.8C107.671,139.267,111.938,144.6,111.938,152.067z"/>
<path style="fill:#F3F3F3;" d="M241.005,245.934l3.2-6.4C244.205,239.534,246.338,247,241.005,245.934z"/>
<g>
</g>
<g>
</g>
<g>
</g>
<g>
</g>
<g>
</g>
<g>
</g>
<g>
</g>
<g>
</g>
<g>
</g>
<g>
</g>
<g>
</g>
<g>
</g>
<g>
</g>
<g>
</g>
<g>
</g>
</svg>
